<svg version="1.1" id="Layer_1" xmlns:x="ns_extend;" xmlns:i="ns_ai;" xmlns:graph="ns_graphs;" xmlns="http://www.w3.org/2000/svg" xmlns:xlink="http://www.w3.org/1999/xlink" x="0px" y="0px" viewBox="0 0 79.6 99.1" style="enable-background:new 0 0 79.6 99.1;" xml:space="preserve">
 <style type="text/css">
  .st0{fill:#FFFFFF;}
 </style>
 <metadata>
  <sfw xmlns="ns_sfw;">
   <slices>
   </slices>
   <sliceSourceBounds bottomLeftOrigin="true" height="99.1" width="79.6" x="-425.5" y="-371">
   </sliceSourceBounds>
  </sfw>
 </metadata>
 <g>
  <path class="st0" d="M68.1,27.2c-0.9-0.5-1.4-1.5-1.4-2.5C65.3,11,53.8,0,39.8,0S14,10.7,12.9,24.7c-0.1,1-0.6,1.9-1.4,2.5
		C4.7,32.1,0,40.1,0,49.1c0,12.4,8.5,23.1,20,26.1c1.9,0.6,4.1,0.8,4.7,0.3c1.4-0.8,3.3-7.7,2.5-9.1c-0.6-0.8-2.2-1.6-4.4-2.2
		c-6.9-1.9-11.8-8-11.8-15.4c0-4.1,1.6-7.7,4.1-10.7c1.1-1.4,2.5-2.5,4.1-3.3c3-1.6,4.7-4.7,4.7-8c0-1.6,0.3-3.3,0.8-4.9
		c2.2-6.3,8-11,15.1-11s12.9,4.7,15.1,11c0.5,1.6,0.8,3.3,0.8,4.9c0,3.3,1.6,6.3,4.7,8c1.6,0.8,2.7,1.9,4.1,3.3
		c2.6,2.9,4.1,6.8,4.1,10.7c0,8.8-7.1,15.9-15.9,15.9c-10.2,0-18.1,8.2-18.1,18.4v10.4c0,1.9,0.3,4.1,0.8,4.7c1.1,1.1,8.2,1.1,9.3,0
		c0.6-0.6,0.8-2.7,0.8-4.7V82.9c0-3.8,3.3-7.1,7.1-7.1c14.8,0,26.9-12.1,26.9-26.9C79.6,40.1,74.9,32.1,68.1,27.2z">
  </path>
 </g>
</svg>